# xmcd CD database file
#
# Track frame offsets:
#	150
#	18470
#	39130
#	57450
#
# Disc length: 1038 seconds
#
# Revision: 3
# Processed by: cddbd v1.5.2PL0 Copyright (c) Steve Scherf et al.
# Submitted via: CDex 1.70beta2
#
DISCID=29040c04
DTITLE=デーモン閣下 - NEO
DYEAR=2019
DGENRE=Rock
TTITLE0=NEO
TTITLE1=エスピオナージ
TTITLE2=NEO(オリジナルカラオケ)
TTITLE3=エスピオナージ(オリジナルカラオケ)
EXTD=YEAR: 2019
EXTT0=
EXTT1=
EXTT2=
EXTT3=
PLAYORDER=
